# ProBuilder 4.0.5
# https://unity3d.com/unity/features/worldbuilding/probuilder
# 1/30/2020 12:54:11 AM

mtllib ./DestructiblePlatform.mtl
o DestructiblePlatform

g DestructiblePlatform
v 9 -0.125 9
v -9 -0.125 9
v 9 0.02500001 9
v -9 0.02500001 9
v -9 -0.125 -9
v -9 0.02500001 -9
v 9 -0.125 -9
v 9 0.02500001 -9
v 8.9 0.125 8.9
v -8.9 0.125 8.9
v 8.9 0.125 -8.9
v -8.9 0.125 -8.9

vt 0 0
vt -18 0
vt 0 0.15
vt -18 0.15
vt 18 0
vt 18 0.15
vt 0.1 -0.1
vt 17.9 -0.1
vt 0.1 -17.9
vt 17.9 -17.9
vt 9 -9
vt -9 -9
vt 9 9
vt -9 9
vt -6.346296 9
vt -6.346296 -9
vt -6.204874 8.9
vt -6.204874 -8.9
vt 9 6.346296
vt -9 6.346296
vt 8.9 6.204874
vt -8.9 6.204874
vt -9 -6.346296
vt 9 -6.346296
vt -8.9 -6.204874
vt 8.9 -6.204874
vt 6.346296 -9
vt 6.346296 9
vt 6.204874 -8.9
vt 6.204874 8.9

vn 0 0 1
vn -1 0 0
vn 0 0 -1
vn 1 0 0
vn 0 1 0
vn 0 -1 0
vn 0.7071055 0.7071081 0
vn 0 0.7071081 0.7071055
vn 0 0.7071081 -0.7071055
vn -0.7071055 0.7071081 0

g DestructiblePlatform
usemtl TowerPlatform
f 3/3/1 4/4/1 2/2/1 1/1/1
f 4/3/2 6/4/2 5/2/2 2/1/2
f 6/6/3 8/3/3 7/1/3 5/5/3
f 8/6/4 3/3/4 1/1/4 7/5/4
f 11/9/5 12/10/5 10/8/5 9/7/5
f 1/13/6 2/14/6 5/12/6 7/11/6
f 11/18/7 9/17/7 3/15/7 8/16/7
f 9/22/8 10/21/8 4/19/8 3/20/8
f 12/26/9 11/25/9 8/23/9 6/24/9
f 10/30/10 12/29/10 6/27/10 4/28/10

