# ProBuilder 4.0.5
# https://unity3d.com/unity/features/worldbuilding/probuilder
# 1/8/2020 2:15:51 PM

mtllib ./HomingTower.mtl
o HomingTower

g HomingTower
v 0.2 -2 0.5
v -0.2 -2 0.5
v 0.2 2 0.5
v -0.2 2 0.5
v -0.5 -2 0.2
v -0.5 -2 -0.2
v -0.5 2 0.2
v -0.5 2 -0.2
v -0.2 -2 -0.5
v 0.2 -2 -0.5
v -0.2 2 -0.5
v 0.2 2 -0.5
v 0.5 -2 -0.2
v 0.5 -2 0.2
v 0.5 2 -0.2
v 0.5 2 0.2
v 0.3707107 1.9 0.4292893
v 0.3707107 -1.9 0.4292893
v 0.4292893 1.9 0.3707107
v 0.4292893 -1.9 0.3707107
v -0.3707106 -1.9 0.4292893
v -0.3707106 1.9 0.4292893
v -0.4292893 -1.9 0.3707107
v -0.4292893 1.9 0.3707107
v 0.3707107 -1.9 -0.4292893
v 0.3707107 1.9 -0.4292893
v 0.4292893 -1.9 -0.3707106
v 0.4292893 1.9 -0.3707106
v -0.4292893 -1.9 -0.3707106
v -0.4292893 1.9 -0.3707106
v -0.3707106 -1.9 -0.4292893
v -0.3707106 1.9 -0.4292893
v 0.556066 1.756 0.643934
v 0.643934 1.756 0.556066
v 0.3 1.776 0.75
v 0.75 1.776 0.3
v 0.643934 0.9960001 0.556066
v 0.556066 0.9960001 0.643934
v 0.75 0.9760001 0.3
v 0.3 0.9760001 0.75
v -0.556066 0.9960001 0.643934
v -0.643934 0.9960001 0.556066
v -0.3 0.9760001 0.75
v -0.75 0.9760001 0.3
v -0.643934 1.756 0.556066
v -0.556066 1.756 0.643934
v -0.75 1.776 0.3
v -0.3 1.776 0.75
v 0.556066 0.9960001 -0.643934
v 0.643934 0.9960001 -0.556066
v 0.3 0.9760001 -0.75
v 0.75 0.9760001 -0.3
v 0.643934 1.756 -0.556066
v 0.556066 1.756 -0.643934
v 0.75 1.776 -0.3
v 0.3 1.776 -0.75
v -0.3 0.9760001 -0.75
v -0.75 0.9760001 -0.3
v -0.75 1.776 -0.3
v -0.3 1.776 -0.75
v -0.643934 0.9960001 -0.556066
v -0.556066 0.9960001 -0.643934
v -0.556066 1.756 -0.643934
v -0.643934 1.756 -0.556066
v -0.3 1.52812 0.75
v 0.3 1.52812 0.75
v -0.75 1.52812 -0.3
v -0.75 1.52812 0.3
v 0.3 1.52812 -0.75
v -0.3 1.52812 -0.75
v 0.75 1.52812 0.3
v 0.75 1.52812 -0.3
v 0.556066 1.52812 0.643934
v 0.643934 1.52812 0.556066
v -0.556066 1.52812 0.643934
v -0.643934 1.52812 0.556066
v 0.556066 1.52812 -0.643934
v 0.643934 1.52812 -0.556066
v -0.643934 1.52812 -0.556066
v -0.556066 1.52812 -0.643934
v -0.3 1.25206 0.75
v 0.3 1.25206 0.75
v -0.2701632 1.25206 0.6
v -0.2701632 1.52812 0.6
v 0.2701631 1.52812 0.6
v 0.2701631 1.25206 0.6
v -0.75 1.25206 -0.3
v -0.75 1.25206 0.3
v -0.5999999 1.25206 -0.2701632
v -0.5999999 1.52812 -0.2701632
v -0.5999999 1.52812 0.2701631
v -0.5999999 1.25206 0.2701631
v 0.2701631 1.52812 -0.5999999
v -0.2701632 1.52812 -0.5999999
v -0.2701632 1.25206 -0.5999999
v 0.2701631 1.25206 -0.5999999
v -0.3 1.25206 -0.75
v 0.3 1.25206 -0.75
v 0.6 1.52812 0.2701631
v 0.6 1.52812 -0.2701632
v 0.6 1.25206 -0.2701632
v 0.6 1.25206 0.2701631
v 0.75 1.25206 -0.3
v 0.75 1.25206 0.3
v 0.556066 1.26206 0.643934
v 0.643934 1.26206 0.556066
v 0.4710978 1.26206 0.5167701
v 0.4710979 1.52812 0.5167701
v 0.5167701 1.52812 0.4710979
v 0.5167701 1.26206 0.4710979
v -0.643934 1.26206 0.556066
v -0.556066 1.26206 0.643934
v -0.5167701 1.26206 0.4710979
v -0.5167701 1.52812 0.4710979
v -0.4710979 1.52812 0.5167702
v -0.4710979 1.26206 0.5167701
v 0.643934 1.26206 -0.556066
v 0.556066 1.26206 -0.643934
v 0.5167701 1.26206 -0.4710979
v 0.5167701 1.52812 -0.4710979
v 0.4710979 1.52812 -0.5167701
v 0.4710979 1.26206 -0.5167701
v -0.4710979 1.52812 -0.5167701
v -0.5167701 1.52812 -0.4710979
v -0.5167701 1.26206 -0.4710979
v -0.4710979 1.26206 -0.5167701
v -0.643934 1.26206 -0.556066
v -0.556066 1.26206 -0.643934

vt -0.3 0
vt -0.7 0
vt -0.3 4
vt -0.7 4
vt 0.7 0
vt 0.3 0
vt 0.7 4
vt 0.3 4
vt -0.04142136 3.9
vt -0.04142136 0.1
vt 0.04142136 3.9
vt 0.04142136 0.1
vt 0.1287332 4.976
vt 0.1287332 0.9760001
vt 0.3135091 4.876
vt 0.3135091 1.076
vt 3.008942 -1.689385
vt 2.967521 -1.761129
vt 3.200364 -1.602783
vt 2.988232 -1.970206
vt -0.1287332 0.9760001
vt -0.1287332 4.976
vt -0.3135091 1.076
vt -0.3135091 4.876
vt 1.241177 0.6687651
vt 1.199755 0.7405089
vt 1.220466 0.4596881
vt 1.008334 0.8271114
vt -0.6656855 0.1
vt -0.6656855 3.9
vt -0.7485281 0.1
vt -0.7485281 3.9
vt 0.3332067 0.9760001
vt 0.3332067 4.976
vt 0.1484307 1.076
vt 0.1484307 4.876
vt 0.3949747 1.20515
vt 0.312132 1.20515
vt 0.5656854 1.082675
vt 0.1414214 1.082675
vt 0.3200749 4.976
vt 0.3200749 0.9760001
vt 0.5048509 4.876
vt 0.5048509 1.076
vt -3.321072 -1.557007
vt -3.362494 -1.485263
vt -3.341783 -1.766084
vt -3.553915 -1.398661
vt 0.7485281 0.1
vt 0.7485281 3.9
vt 0.6656855 0.1
vt 0.6656855 3.9
vt -0.3200749 0.9760001
vt -0.3200749 4.976
vt -0.5048509 1.076
vt -0.5048509 4.876
vt 1.199755 -0.3322605
vt 1.241177 -0.2605166
vt 1.008334 -0.4188631
vt 1.220466 -0.05143958
vt -0.3332067 4.976
vt -0.3332067 0.9760001
vt -0.1484307 4.876
vt -0.1484307 1.076
vt 1.789734 1.679887
vt 1.831155 1.608143
vt 1.810444 1.888964
vt 2.022576 1.521541
vt 0 -0.3
vt 0 -0.7
vt -0.3 -1
vt -0.7 -1
vt -1 -0.7
vt -1 -0.3
vt 1 -0.3
vt 1 -0.7
vt 0.7 -1
vt 0.3 -1
vt 0.1418648 0.9760001
vt 0.1418648 4.976
vt -0.04291116 1.076
vt -0.04291116 4.876
vt -0.8876233 -0.4646403
vt -0.8462019 -0.5363843
vt -0.8669127 -0.2555634
vt -0.6547806 -0.6229868
vt -0.1418648 4.976
vt -0.1418648 0.9760001
vt 0.04291116 4.876
vt 0.04291116 1.076
vt -3.362495 1.89351
vt -3.321074 1.965254
vt -3.553917 1.806907
vt -3.341784 2.17433
vt 2.284079 -0.9998496
vt 2.241875 -1.071656
vt 2.417776 -0.9065702
vt 2.201638 -1.274313
vt 0.8686667 0.7730137
vt 0.8272735 0.8448197
vt 0.8826957 0.6121969
vt 0.670708 0.979938
vt -0.02703655 1.297781
vt -0.1103244 1.298427
vt 0.1205945 1.228636
vt -0.3059493 1.231945
vt -2.997476 -1.495769
vt -3.038869 -1.423963
vt -2.983446 -1.656586
vt -3.195434 -1.288845
vt 0.80233 -0.2160876
vt 0.8445336 -0.1442813
vt 0.6686327 -0.309367
vt 0.8847709 0.05837595
vt 2.217743 1.784067
vt 2.259137 1.712261
vt 2.203714 1.944883
vt 2.415702 1.577142
vt -0.08893162 0.2798318
vt -0.0475384 0.2080259
vt -0.1029606 0.4406486
vt 0.1090271 0.07290745
vt -3.063814 2.052695
vt -3.02161 2.124501
vt -3.197511 1.959415
vt -2.981373 2.327158
vt -0.7 2
vt -0.3 2
vt 0.3 2
vt 0.7 2
vt -0.04142136 2
vt 0.04142136 2
vt 0.1287334 3.736601
vt 0.3135093 4.876
vt 0.3135093 3.736601
vt -0.1287333 3.736601
vt -0.3135093 3.736601
vt -0.3135093 4.876
vt -0.6656855 2
vt -0.7485281 2
vt 0.3332064 3.736601
vt 0.1484304 3.736601
vt 0.3200749 3.736601
vt 0.5048508 3.736601
vt 0.7485281 2
vt 0.6656855 2
vt -0.3200749 3.736601
vt -0.5048511 3.736601
vt -0.5048509 4.876
vt -0.2277204 3.666791
vt -0.923117 4.456617
vt -0.1978088 4.982083
vt 0.4414803 4.255983
vt 0.1422755 4.976
vt 0.1418475 3.736537
vt -0.04332174 3.736601
vt -0.03637877 3.666791
vt -0.7317754 4.456617
vt -0.006467253 4.982083
vt 0.6328218 4.255983
vt -0.7 1
vt -0.3 1
vt 0.7 1
vt 0.3 1
vt -0.04142136 1.05
vt 0.04142136 1.05
vt 0.7886631 1.353697
vt 0.1349975 0.962123
vt -0.3645149 2.068688
vt 0.307245 2.420178
vt 0.1543994 2.336671
vt -0.2193359 3.607019
vt 0.2878429 3.756231
vt 0.6480399 2.5319
vt -0.2575192 0.9819913
vt -0.9766163 1.868289
vt -0.2117511 2.433621
vt 0.5343736 1.514011
vt -0.2634955 2.334994
vt -0.9131043 3.333627
vt -0.2031628 3.795442
vt 0.4708616 2.759275
vt -0.7485281 1.05
vt -0.6656855 1.05
vt 0.1484304 2.406301
vt 0.3332064 2.356301
vt -0.1861001 2.5319
vt 0.1740968 3.756231
vt 0.6812755 3.607019
vt 0.3075404 2.336671
vt 0.980005 1.353697
vt 0.3263393 0.962123
vt -0.1731731 2.068688
vt 0.4985868 2.420178
vt 0.3457412 2.336671
vt -0.0279943 3.607019
vt 0.4791846 3.756231
vt 0.8393817 2.5319
vt 0.6656855 1.05
vt 0.7485281 1.05
vt -0.4488609 0.9819913
vt -1.167958 1.868289
vt -0.4030929 2.433621
vt 0.3430319 1.514011
vt -0.4548371 2.334994
vt -1.104446 3.333627
vt -0.3945044 3.795442
vt 0.27952 2.759275
vt -0.3133155 3.736602
vt -0.168322 3.736602
vt -0.168322 2.406301
vt -0.3133155 2.356301
vt -0.1484304 2.406301
vt -0.3332064 2.356301
vt -0.04291108 2.406301
vt 0.1418649 2.356301
vt -0.377442 2.5319
vt -0.01724467 3.756231
vt 0.4899343 3.607019
vt 0.1161988 2.336671
vt -0.1219738 3.736601
vt 0.02301961 3.736601
vt 0.02301961 2.406301
vt -0.1219738 2.356301
vt 0.04291111 2.406301
vt -0.1418648 2.356301
vt 0.45 -0.25
vt 0.05000003 -0.25
vt 0.4301087 -0.15
vt 0.06989121 -0.15
vt -0.1792893 -0.1207108
vt -0.25 0.04999995
vt -0.09451342 -0.0640654
vt -0.1499999 0.06989115
vt -0.8557826 -0.1684338
vt -1.033586 -0.09903705
vt -0.8365825 -0.06662577
vt -0.9761583 -0.01216054
vt -0.05000003 -0.25
vt -0.45 -0.25
vt -0.06989121 -0.15
vt -0.4301088 -0.15
vt 0.04999995 -0.25
vt -0.1207108 -0.1792893
vt -0.0640654 -0.09451342
vt 0.4487198 0.02735758
vt 0.2713658 -0.04295146
vt 0.3910147 0.1142872
vt 0.2517996 0.05908644
vt 0.1792893 -0.1207107
vt 0.1207107 -0.1792893
vt 0.09451336 -0.06406525
vt 0.06406525 -0.09451336
vt 0.1673882 -0.3348322
vt 0.09548908 -0.5116321
vt 0.06586957 -0.3141936
vt 0.009440005 -0.4529818
vt -0.25 0.05000003
vt -0.25 0.45
vt -0.15 0.4301087
vt -0.1792893 0.6207107
vt -0.1207107 0.6792893
vt -0.09451336 0.5640653
vt -0.06406525 0.5945135
vt 0.25 0.45
vt 0.25 0.05000003
vt 0.15 0.4301088
vt 0.15 0.06989121
vt -0.06632543 0.9965605
vt 0.009952307 0.821694
vt -0.1512511 0.9359426
vt -0.09136516 0.7986805
vt 0.1207107 0.6792893
vt 0.1792893 0.6207107
vt 0.06406525 0.5945134
vt 0.09451336 0.5640652
vt 0.04999995 0.75
vt 0.06989115 0.65
vt 0.3220415 0.6829074
vt 0.4998448 0.6135107
vt 0.3028415 0.5810995
vt 0.4424172 0.5266342
vt 0.05000003 0.75
vt 0.45 0.75
vt 0.06989121 0.65
vt 0.4301087 0.65
vt 0.6207107 0.6792893
vt 0.6792893 0.6207107
vt 0.5640652 0.5945134
vt 0.5945134 0.5640653
vt -0.45 0.75
vt -0.05000003 0.75
vt -0.4301088 0.65
vt -0.06989121 0.65
vt -0.9733362 0.4512039
vt -0.7959827 0.5215137
vt -0.9156306 0.3642751
vt -0.7764158 0.4194765
vt 0.4301087 0.65
vt -0.6792893 0.6207107
vt -0.6207107 0.6792893
vt -0.5945134 0.5640652
vt -0.5640652 0.5945134
vt 0.75 0.45
vt 0.65 0.4301087
vt -0.75 0.05000003
vt -0.75 0.45
vt -0.65 0.06989121
vt -0.65 0.4301088
vt -0.6687887 0.8548152
vt -0.5969317 1.031648
vt -0.5672362 0.8342107
vt -0.5108396 0.9730248
vt 0.75 0.05000003
vt 0.65 0.4301087
vt 0.65 0.06989121
vt 0.6792893 -0.1207107
vt 0.6207107 -0.1792893
vt 0.5945134 -0.06406525
vt 0.5640653 -0.09451336
vt 0.75 0.04999995
vt 0.65 0.06989115
vt -0.4449058 -0.4399351
vt -0.5211836 -0.2650687
vt -0.3599802 -0.3793173
vt -0.4198662 -0.2420552
vt -0.6207107 -0.1792893
vt -0.6792893 -0.1207107
vt -0.5640653 -0.09451336
vt -0.5945134 -0.06406525

vn 0 0 1
vn -1 0 0
vn 0 0 -1
vn 1 0 0
vn 0.7071068 0 0.7071068
vn 0.3826835 0 0.9238795
vn 0.5773501 0.5773506 0.5773501
vn 0.9238795 0 0.3826835
vn 0.5773501 -0.5773506 0.5773501
vn -0.7071063 0 0.7071073
vn -0.3826836 0 0.9238794
vn -0.5773501 -0.5773497 0.577351
vn -0.9238796 0 0.3826833
vn -0.5773492 0.5773515 0.5773501
vn 0.7071073 0 -0.7071063
vn 0.3826833 0 -0.9238796
vn 0.5773501 -0.5773515 -0.5773492
vn 0.9238794 0 -0.3826836
vn 0.577351 0.5773497 -0.5773501
vn -0.7071068 0 -0.7071068
vn 0 -1 0
vn 0 1 0
vn -0.9238796 0 -0.3826835
vn -0.5773501 -0.5773505 -0.5773501
vn -0.3826835 0 -0.9238796
vn -0.5773501 0.5773505 -0.5773501
vn 0.1310242 0.9826828 0.1310242
vn 0.1310242 -0.9826828 0.1310242
vn -0.1310242 -0.9826828 0.1310242
vn -0.1310242 0.9826828 0.1310242
vn 0.1310242 -0.9826828 -0.1310242
vn 0.1310242 0.9826828 -0.1310242
vn -0.1310242 -0.9826828 -0.1310242
vn -0.1310242 0.9826828 -0.1310242
vn -0.03605532 0.9993241 -0.007171846
vn -0.03749586 0.9991136 -0.01659415
vn -0.0389364 0.998903 -0.02601646
vn 0.03056623 0.9993241 -0.02042368
vn 0.03824742 0.9991136 -0.01477971
vn 0.04592862 0.998903 -0.009135739
vn -0.007171825 0.9993241 0.03605532
vn -0.01659413 0.9991136 0.03749587
vn -0.02601644 0.998903 0.03893641
vn -0.02042369 0.9993241 -0.03056622
vn -0.01477973 0.9991136 -0.03824741
vn -0.009135765 0.998903 -0.04592861
vn 0.03605532 0.9993241 0.00717183
vn 0.03749586 0.9991136 0.01659413
vn 0.03893639 0.998903 0.02601643
vn -0.03056622 0.9993241 0.0204237
vn -0.03824741 0.9991136 0.01477974
vn -0.0459286 0.998903 0.009135772
vn 0.007171851 0.9993241 -0.03605532
vn 0.01659415 0.9991136 -0.03749585
vn 0.02601646 0.998903 -0.03893639
vn 0.02042368 0.9993241 0.03056623
vn 0.01477971 0.9991136 0.03824741
vn 0.009135745 0.998903 0.0459286

g HomingTower
usemtl HomingTower
f 14/69/21 1/1/21 2/2/21
f 2/2/21 13/70/21 14/69/21
f 13/70/21 2/2/21 5/74/21
f 13/70/21 5/74/21 10/71/21
f 9/72/21 10/71/21 5/74/21
f 5/74/21 6/73/21 9/72/21
f 11/77/22 8/76/22 7/75/22
f 7/75/22 12/78/22 11/77/22
f 12/78/22 7/75/22 15/70/22
f 7/75/22 4/5/22 15/70/22
f 16/69/22 15/70/22 4/5/22
f 4/5/22 3/6/22 16/69/22
f 39/69/21 40/1/21 43/2/21
f 43/2/21 52/70/21 39/69/21
f 52/70/21 43/2/21 44/74/21
f 52/70/21 44/74/21 51/71/21
f 57/72/21 51/71/21 44/74/21
f 44/74/21 58/73/21 57/72/21
f 60/77/22 59/76/22 47/75/22
f 47/75/22 56/78/22 60/77/22
f 56/78/22 47/75/22 55/70/22
f 47/75/22 48/5/22 55/70/22
f 36/69/22 55/70/22 48/5/22
f 48/5/22 35/6/22 36/69/22
f 4/4/1 2/2/1 1/1/1
f 1/1/1 3/3/1 4/4/1
f 8/4/2 6/2/2 5/1/2
f 5/1/2 7/3/2 8/4/2
f 12/8/3 10/6/3 9/5/3
f 9/5/3 11/7/3 12/8/3
f 16/8/4 14/6/4 13/5/4
f 13/5/4 15/7/4 16/8/4
f 19/11/5 17/9/5 18/10/5
f 18/10/5 20/12/5 19/11/5
f 17/15/6 3/13/6 1/14/6
f 1/14/6 18/16/6 17/15/6
f 3/19/7 17/17/7 19/18/7
f 19/18/7 16/20/7 3/19/7
f 20/23/8 14/21/8 16/22/8
f 16/22/8 19/24/8 20/23/8
f 14/27/9 20/25/9 18/26/9
f 18/26/9 1/28/9 14/27/9
f 23/31/10 21/29/10 22/30/10
f 22/30/10 24/32/10 23/31/10
f 21/35/11 2/33/11 4/34/11
f 4/34/11 22/36/11 21/35/11
f 2/39/12 21/37/12 23/38/12
f 23/38/12 5/40/12 2/39/12
f 24/43/13 7/41/13 5/42/13
f 5/42/13 23/44/13 24/43/13
f 7/47/14 24/45/14 22/46/14
f 22/46/14 4/48/14 7/47/14
f 27/51/15 25/49/15 26/50/15
f 26/50/15 28/52/15 27/51/15
f 25/55/16 10/53/16 12/54/16
f 12/54/16 26/56/16 25/55/16
f 10/59/17 25/57/17 27/58/17
f 27/58/17 13/60/17 10/59/17
f 28/63/18 15/61/18 13/62/18
f 13/62/18 27/64/18 28/63/18
f 15/67/19 28/65/19 26/66/19
f 26/66/19 12/68/19 15/67/19
f 31/10/20 29/12/20 30/11/20
f 30/11/20 32/9/20 31/10/20
f 29/81/23 6/79/23 8/80/23
f 8/80/23 30/82/23 29/81/23
f 6/85/24 29/83/24 31/84/24
f 31/84/24 9/86/24 6/85/24
f 32/89/25 11/87/25 9/88/25
f 9/88/25 31/90/25 32/89/25
f 11/93/26 32/91/26 30/92/26
f 30/92/26 8/94/26 11/93/26
f 35/97/27 33/95/27 34/96/27
f 34/96/27 36/98/27 35/97/27
f 39/101/28 37/99/28 38/100/28
f 38/100/28 40/102/28 39/101/28
f 43/105/29 41/103/29 42/104/29
f 42/104/29 44/106/29 43/105/29
f 47/109/30 45/107/30 46/108/30
f 46/108/30 48/110/30 47/109/30
f 51/113/31 49/111/31 50/112/31
f 50/112/31 52/114/31 51/113/31
f 55/117/32 53/115/32 54/116/32
f 54/116/32 56/118/32 55/117/32
f 58/121/33 61/119/33 62/120/33
f 62/120/33 57/122/33 58/121/33
f 60/125/34 63/123/34 64/124/34
f 64/124/34 59/126/34 60/125/34
f 48/4/1 65/127/1 66/128/1
f 66/128/1 35/3/1 48/4/1
f 59/4/2 67/127/2 68/128/2
f 68/128/2 47/3/2 59/4/2
f 70/130/3 60/7/3 56/8/3
f 56/8/3 69/129/3 70/130/3
f 72/130/4 55/7/4 36/8/4
f 36/8/4 71/129/4 72/130/4
f 33/9/5 73/131/5 74/132/5
f 74/132/5 34/11/5 33/9/5
f 66/133/6 73/135/6 33/134/6
f 33/134/6 35/13/6 66/133/6
f 74/137/8 71/136/8 36/22/8
f 36/22/8 34/138/8 74/137/8
f 45/32/10 76/140/10 75/139/10
f 75/139/10 46/30/10 45/32/10
f 46/36/11 75/142/11 65/141/11
f 65/141/11 48/34/11 46/36/11
f 68/143/13 76/144/13 45/43/13
f 45/43/13 47/41/13 68/143/13
f 77/145/15 54/50/15 53/52/15
f 53/52/15 78/146/15 77/145/15
f 77/148/16 69/147/16 56/54/16
f 56/54/16 54/149/16 77/148/16
f 53/152/18 55/151/18 72/150/18
f 72/150/18 78/153/18 53/152/18
f 79/132/20 64/11/20 63/9/20
f 63/9/20 80/131/20 79/132/20
f 64/82/23 79/156/23 67/155/23
f 67/155/23 59/154/23 64/82/23
f 63/159/25 60/158/25 70/157/25
f 70/157/25 80/160/25 63/159/25
f 81/161/1 43/2/1 40/1/1
f 40/1/1 82/162/1 81/161/1
f 83/161/1 86/162/1 85/128/1
f 85/128/1 84/127/1 83/161/1
f 87/161/2 58/2/2 44/1/2
f 44/1/2 88/162/2 87/161/2
f 89/161/2 92/162/2 91/128/2
f 91/128/2 90/127/2 89/161/2
f 95/163/3 94/130/3 93/129/3
f 93/129/3 96/164/3 95/163/3
f 97/163/3 98/164/3 51/6/3
f 51/6/3 57/5/3 97/163/3
f 101/163/4 100/130/4 99/129/4
f 99/129/4 102/164/4 101/163/4
f 103/163/4 104/164/4 39/6/4
f 39/6/4 52/5/4 103/163/4
f 37/12/5 106/166/5 105/165/5
f 105/165/5 38/10/5 37/12/5
f 108/131/5 107/165/5 110/166/5
f 110/166/5 109/132/5 108/131/5
f 82/169/6 40/168/6 38/167/6
f 38/167/6 105/170/6 82/169/6
f 85/172/6 86/171/6 107/174/6
f 107/174/6 108/173/6 85/172/6
f 104/177/8 106/176/8 37/175/8
f 37/175/8 39/178/8 104/177/8
f 99/181/8 109/180/8 110/179/8
f 110/179/8 102/182/8 99/181/8
f 42/31/10 41/29/10 112/184/10
f 112/184/10 111/183/10 42/31/10
f 114/140/10 113/183/10 116/184/10
f 116/184/10 115/139/10 114/140/10
f 41/35/11 43/33/11 81/186/11
f 81/186/11 112/185/11 41/35/11
f 115/188/11 116/187/11 83/190/11
f 83/190/11 84/189/11 115/188/11
f 88/193/13 44/192/13 42/191/13
f 42/191/13 111/194/13 88/193/13
f 91/196/13 92/195/13 113/198/13
f 113/198/13 114/197/13 91/196/13
f 49/49/15 118/200/15 117/199/15
f 117/199/15 50/51/15 49/49/15
f 122/200/15 121/145/15 120/146/15
f 120/146/15 119/199/15 122/200/15
f 98/203/16 118/202/16 49/201/16
f 49/201/16 51/204/16 98/203/16
f 93/207/16 121/206/16 122/205/16
f 122/205/16 96/208/16 93/207/16
f 119/211/18 120/210/18 100/209/18
f 100/209/18 101/212/18 119/211/18
f 52/62/18 50/64/18 117/213/18
f 117/213/18 103/214/18 52/62/18
f 124/132/20 123/131/20 126/165/20
f 126/165/20 125/166/20 124/132/20
f 62/10/20 61/12/20 127/166/20
f 127/166/20 128/165/20 62/10/20
f 61/81/23 58/79/23 87/216/23
f 87/216/23 127/215/23 61/81/23
f 124/218/23 125/217/23 89/220/23
f 89/220/23 90/219/23 124/218/23
f 126/223/25 123/222/25 94/221/25
f 94/221/25 95/224/25 126/223/25
f 57/88/25 62/90/25 128/225/25
f 128/225/25 97/226/25 57/88/25
f 94/230/21 70/228/21 69/227/21
f 69/227/21 93/229/21 94/230/21
f 90/234/21 67/232/21 79/231/21
f 79/231/21 124/233/21 90/234/21
f 122/238/37 118/236/36 98/235/35
f 98/235/35 96/237/36 122/238/37
f 96/242/22 98/240/22 97/239/22
f 97/239/22 95/241/22 96/242/22
f 123/245/21 80/244/21 70/243/21
f 70/243/21 94/230/21 123/245/21
f 124/233/21 79/231/21 80/244/21
f 80/244/21 123/245/21 124/233/21
f 95/249/40 97/247/39 128/246/38
f 128/246/38 126/248/39 95/249/40
f 126/253/22 128/251/22 127/250/22
f 127/250/22 125/252/22 126/253/22
f 125/257/43 127/255/42 87/254/41
f 87/254/41 89/256/42 125/257/43
f 91/260/21 68/259/21 67/258/21
f 67/258/21 90/234/21 91/260/21
f 115/264/21 75/262/21 76/261/21
f 76/261/21 114/263/21 115/264/21
f 89/268/22 87/266/22 88/265/22
f 88/265/22 92/267/22 89/268/22
f 92/272/46 88/270/45 111/269/44
f 111/269/44 113/271/45 92/272/46
f 114/263/21 76/261/21 68/259/21
f 68/259/21 91/260/21 114/263/21
f 113/276/22 111/274/22 112/273/22
f 112/273/22 116/275/22 113/276/22
f 84/278/21 65/277/21 75/262/21
f 75/262/21 115/264/21 84/278/21
f 116/282/49 112/280/48 81/279/47
f 81/279/47 83/281/48 116/282/49
f 85/286/21 66/284/21 65/283/21
f 65/283/21 84/285/21 85/286/21
f 109/290/21 74/288/21 73/287/21
f 73/287/21 108/289/21 109/290/21
f 83/294/22 81/292/22 82/291/22
f 82/291/22 86/293/22 83/294/22
f 86/298/52 82/296/51 105/295/50
f 105/295/50 107/297/51 86/298/52
f 108/289/21 73/287/21 66/284/21
f 66/284/21 85/299/21 108/289/21
f 107/303/22 105/301/22 106/300/22
f 106/300/22 110/302/22 107/303/22
f 99/305/21 71/304/21 74/288/21
f 74/288/21 109/290/21 99/305/21
f 102/309/22 104/307/22 103/306/22
f 103/306/22 101/308/22 102/309/22
f 110/313/55 106/311/54 104/310/53
f 104/310/53 102/312/54 110/313/55
f 100/316/21 72/314/21 71/304/21
f 71/304/21 99/315/21 100/316/21
f 121/320/21 77/318/21 78/317/21
f 78/317/21 120/319/21 121/320/21
f 120/319/21 78/317/21 72/321/21
f 72/321/21 100/322/21 120/319/21
f 101/326/58 103/324/57 117/323/56
f 117/323/56 119/325/57 101/326/58
f 93/229/21 69/227/21 77/318/21
f 77/318/21 121/320/21 93/229/21
f 119/330/22 117/328/22 118/327/22
f 118/327/22 122/329/22 119/330/22

