# ProBuilder 4.0.5
# https://unity3d.com/unity/features/worldbuilding/probuilder
# 2/9/2020 10:38:52 AM

mtllib ./Spike.mtl
o Spike

g Spike
v -1 0.2070923 0
v -0.5 0.2070923 0.8660254
v 0 6.207092 0
v -1 -6.207062 0
v -0.5 -6.207062 0.8660278
v 0 -6.207062 0
v 0.5 0.2070923 0.8660254
v 0.5 -6.207062 0.8660278
v 1 0.2070923 -8.742278E-08
v 1 -6.207062 0
v 0.4999999 0.2070923 -0.8660254
v 0.5 -6.207062 -0.8660278
v -0.4999999 0.2070923 -0.8660254
v -0.5 -6.207062 -0.8660278

vt -0.5 0.08125028
vt 0.5000001 0.08125028
vt 0 6.143428
vt -1 0
vt -0.5 0.8660278
vt 0 0
vt 0.4999999 0.08125028
vt 0.5 0.8660278
vt 1 0
vt 0.5 -0.8660278
vt -0.4999999 0.08125026
vt -0.5 -0.8660278
vt -0.5000001 0.2070923
vt 0.5 0.2070923
vt -0.5000001 -6.207062
vt 0.500002 -6.207062
vt 0.5000001 0.2070921
vt -0.4999999 0.207092
vt 0.4999999 -6.207062

vn -0.8571429 0.1428571 0.4948716
vn 0 -1 0
vn 5.89933E-08 0.1428571 0.9897434
vn 0.8571429 0.1428571 0.4948716
vn 0.8571428 0.1428571 -0.4948718
vn 0 0.1428572 -0.9897434
vn -0.8571428 0.1428571 -0.4948717
vn 0.8660253 -6.814834E-09 -0.5000001
vn 0.8660257 9.756683E-08 -0.4999995
vn -0.8660254 2.019489E-07 -0.5000001
vn -0.8660257 1.009745E-07 -0.4999995
vn 0 3.71707E-07 -1
vn -0.8660254 0 0.5
vn -0.8660257 9.292655E-08 0.4999995
vn 5.960464E-08 3.71707E-07 1
vn 0.8660254 1.904998E-07 0.5
vn 0.8660257 9.865732E-08 0.4999995

g Spike
usemtl ProBuilderDefault
f 1/1/1 2/2/1 3/3/1
f 6/6/2 5/5/2 4/4/2
f 2/1/3 7/7/3 3/3/3
f 6/6/2 8/8/2 5/5/2
f 7/1/4 9/2/4 3/3/4
f 6/6/2 10/9/2 8/8/2
f 9/1/5 11/7/5 3/3/5
f 6/6/2 12/10/2 10/9/2
f 11/11/6 13/7/6 3/3/6
f 6/6/2 14/12/2 12/10/2
f 13/1/7 1/2/7 3/3/7
f 6/6/2 4/4/2 14/12/2
f 12/16/9 11/14/9 9/13/8
f 9/13/8 10/15/9 12/16/9
f 4/16/11 1/17/11 13/13/10
f 13/13/10 14/15/11 4/16/11
f 14/16/12 13/14/12 11/18/12
f 11/18/12 12/15/12 14/16/12
f 5/16/14 2/17/14 1/13/13
f 1/13/13 4/15/14 5/16/14
f 8/19/15 7/14/15 2/13/15
f 2/13/15 5/15/15 8/19/15
f 10/16/17 9/17/17 7/13/16
f 7/13/16 8/15/17 10/16/17

