# ProBuilder 4.0.5
# https://unity3d.com/unity/features/worldbuilding/probuilder
# 1/26/2020 6:16:11 PM

mtllib ./Tower.mtl
o Tower

g Tower
v 2.1 15.00172 2.10097
v 2.1 -14.99828 2.10097
v -2.1 -14.99828 2.10097
v -2.1 15.00172 2.10097
v -1.575 15.00172 2.10097
v -1.05 15.00172 2.10097
v -0.5250001 15.00172 2.10097
v 0 15.00172 2.10097
v 0.525 15.00172 2.10097
v 1.05 15.00172 2.10097
v 1.575 15.00172 2.10097
v -2.1 -14.99828 -2.09903
v -2.1 -11.24828 -2.09903
v -2.1 -7.498282 -2.09903
v -2.1 -3.748282 -2.09903
v -2.1 0.001717567 -2.09903
v -2.1 3.751718 -2.09903
v -2.1 7.501718 -2.09903
v -2.1 11.25172 -2.09903
v -2.1 15.00172 -2.09903
v -2.1 15.00172 -1.57403
v -2.1 15.00172 -1.04903
v -2.1 15.00172 -0.5240302
v -2.1 15.00172 0.0009698868
v -2.1 15.00172 0.5259699
v -2.1 15.00172 1.05097
v -2.1 15.00172 1.57597
v -1.05 0.001717567 -2.09903
v -1.05 -3.748282 -2.09903
v -0.5250001 -3.748282 -2.09903
v -0.5250001 0.001717567 -2.09903
v -1.05 -7.498282 -2.09903
v -0.5250001 -7.498282 -2.09903
v 0 -7.498282 -2.09903
v 0 -3.748282 -2.09903
v 0 0.001717567 -2.09903
v -1.575 -3.748282 -2.09903
v -1.575 -7.498282 -2.09903
v -1.575 0.001717567 -2.09903
v -1.575 -11.24828 -2.09903
v -1.575 -14.99828 -2.09903
v 2.1 0.001717567 -2.09903
v 1.575 0.001717567 -2.09903
v 1.575 -3.748282 -2.09903
v 2.1 -3.748282 -2.09903
v 1.05 0.001717567 -2.09903
v 1.05 -3.748282 -2.09903
v 1.05 -7.498282 -2.09903
v 1.575 -7.498282 -2.09903
v 2.1 -7.498282 -2.09903
v 0.525 0.001717567 -2.09903
v 0.5249999 -3.748282 -2.09903
v 0.525 -7.498282 -2.09903
v 1.575 -11.24828 -2.09903
v 2.1 -11.24828 -2.09903
v 1.575 -14.99828 -2.09903
v 2.1 -14.99828 -2.09903
v 2.1 15.00172 -2.09903
v 1.575 15.00172 -2.09903
v 1.575 11.25172 -2.09903
v 2.1 11.25172 -2.09903
v 1.05 15.00172 -2.09903
v 1.05 11.25172 -2.09903
v 1.05 7.501718 -2.09903
v 1.575 7.501718 -2.09903
v 2.1 7.501718 -2.09903
v 0.525 15.00172 -2.09903
v 0.5249999 11.25172 -2.09903
v 0 15.00172 -2.09903
v 0 11.25172 -2.09903
v 0 7.501718 -2.09903
v 0.525 7.501718 -2.09903
v 0.5249999 3.751718 -2.09903
v 1.05 3.751718 -2.09903
v 0 3.751718 -2.09903
v 1.575 3.751718 -2.09903
v 2.1 3.751718 -2.09903
v -1.05 15.00172 -2.09903
v -1.05 11.25172 -2.09903
v -0.5250001 11.25172 -2.09903
v -0.5250001 15.00172 -2.09903
v -1.05 7.501718 -2.09903
v -0.5250001 7.501718 -2.09903
v -1.575 11.25172 -2.09903
v -1.575 7.501718 -2.09903
v -1.575 15.00172 -2.09903
v -1.575 3.751718 -2.09903
v -1.05 3.751718 -2.09903
v -0.5250001 3.751718 -2.09903
v 2.1 15.00172 -1.04903
v 2.1 15.00172 -1.57403
v 2.1 15.00172 1.57597
v 2.1 15.00172 1.05097
v 2.1 15.00172 0.5259699
v 2.1 15.00172 0.0009698868
v 2.1 15.00172 -0.5240302
v 1.575 15.00172 0.0009698868
v 1.575 15.00172 0.5259697
v 1.575 15.00172 1.05097
v 1.575 15.00172 1.57597
v 1.05 15.00172 1.57597
v 0.525 15.00172 1.57597
v 0 15.00172 1.57597
v -1.575 15.00172 0.0009698868
v -1.575 15.00172 0.5259697
v -1.575 15.00172 1.05097
v -0.5250001 15.00172 1.57597
v -1.05 15.00172 1.57597
v -1.575 15.00172 1.57597
v -1.575 15.00172 -1.57403
v -1.05 15.00172 -1.57403
v -1.575 15.00172 -1.04903
v -0.5250001 15.00172 -1.57403
v 0 15.00172 -1.57403
v -1.575 15.00172 -0.5240302
v 0.525 15.00172 -1.57403
v 1.05 15.00172 -1.57403
v 1.575 15.00172 -1.57403
v 1.575 15.00172 -1.04903
v 1.575 15.00172 -0.5240302
v 1.05 -14.99828 -2.09903
v 0.525 -14.99828 -2.09903
v 0 -14.99828 -2.09903
v -0.5250001 -14.99828 -2.09903
v -1.05 -14.99828 -2.09903
v 1.574998 -15.00172 -1.04903
v 1.574998 -15.00172 -1.57403
v -1.574999 -15.00172 -1.57403
v -1.574999 -15.00172 -1.04903
v -1.574999 -15.00172 0.0009698868
v -1.574999 -15.00172 0.5259697
v -1.574999 -15.00172 -0.5240302
v -1.574999 -15.00172 1.05097
v -1.574999 -15.00172 1.57597
v -1.050002 -15.00172 1.57597
v -0.5250001 -15.00172 1.57597
v 1.430511E-06 -15.00172 1.57597
v 0.5249991 -15.00172 1.57597
v 1.050001 -15.00172 1.57597
v 1.574998 -15.00172 1.57597
v 1.574998 -15.00172 1.05097
v 1.574998 -15.00172 0.5259697
v 1.574998 -15.00172 0.0009698868
v 1.574998 -15.00172 -0.5240302
v -1.050002 -7.493002 -1.57403
v -1.574999 -7.493002 -1.57403
v -0.5250001 -7.493002 -1.57403
v 1.430511E-06 -7.493002 -1.57403
v 0.5249991 -7.493002 -1.57403
v 1.050001 -7.493002 -1.57403
v 1.574998 -7.493002 -1.57403
v -1.050002 -7.493002 -2.10097
v -1.574999 -7.493002 -2.100969
v -0.5250001 -7.493002 -2.100969
v 1.430511E-06 -7.493002 -2.100969
v 0.5249991 -7.493002 -2.100969
v 1.050001 -7.493002 -2.10097
v 1.574998 -7.493002 -2.100969
v 1.574998 -14.9955 -1.57403
v 1.574998 -14.9955 -2.100969
v -1.574999 -14.9955 -2.100969
v -1.574999 -14.9955 -1.57403

vt 2.1 15.00172
vt 2.1 -14.99828
vt -2.1 -14.99828
vt -2.1 15.00172
vt -1.575 15.00172
vt -1.05 15.00172
vt -0.5250001 15.00172
vt 4.709704E-15 15.00172
vt 0.525 15.00172
vt 1.05 15.00172
vt 1.575 15.00172
vt 2.10097 -14.99828
vt -2.09903 -14.99828
vt -2.09903 -11.24828
vt -2.09903 -7.498282
vt -2.09903 -3.748282
vt -2.09903 0.001717567
vt -2.09903 3.751718
vt -2.09903 7.501718
vt -2.09903 11.25172
vt -2.09903 15.00172
vt -1.57403 15.00172
vt -1.04903 15.00172
vt -0.5240302 15.00172
vt 0.0009698868 15.00172
vt 0.5259699 15.00172
vt 1.05097 15.00172
vt 1.57597 15.00172
vt 2.10097 15.00172
vt 1.05 0.001717567
vt 1.05 -3.748282
vt 0.5250001 -3.748282
vt 0.5250001 0.001717567
vt 1.05 -7.498282
vt 0.5250001 -7.498282
vt 0 -7.498282
vt 0 -3.748282
vt 0 0.001717567
vt 1.575 -3.748282
vt 1.575 -7.498282
vt 1.575 0.001717567
vt 2.1 0.001717567
vt 2.1 -3.748282
vt 2.1 -7.498282
vt 2.1 -11.24828
vt 1.575 -11.24828
vt 1.575 -14.99828
vt -2.1 0.001717567
vt -1.575 0.001717567
vt -1.575 -3.748282
vt -2.1 -3.748282
vt -1.05 0.001717567
vt -1.05 -3.748282
vt -1.05 -7.498282
vt -1.575 -7.498282
vt -2.1 -7.498282
vt -0.525 0.001717567
vt -0.5249999 -3.748282
vt -0.525 -7.498282
vt -1.575 -11.24828
vt -2.1 -11.24828
vt -1.575 -14.99828
vt -1.575 11.25172
vt -2.1 11.25172
vt -1.05 11.25172
vt -1.05 7.501718
vt -1.575 7.501718
vt -2.1 7.501718
vt -0.525 15.00172
vt -0.5249999 11.25172
vt 0 11.25172
vt 0 7.501718
vt -0.525 7.501718
vt -0.5249999 3.751718
vt -1.05 3.751718
vt 0 3.751718
vt -1.575 3.751718
vt -2.1 3.751718
vt 1.05 11.25172
vt 0.5250001 11.25172
vt 0.5250001 15.00172
vt 1.05 7.501718
vt 0.5250001 7.501718
vt 1.575 11.25172
vt 1.575 7.501718
vt 2.1 11.25172
vt 2.1 7.501718
vt 1.575 3.751718
vt 1.05 3.751718
vt 2.1 3.751718
vt 0.5250001 3.751718
vt 1.04903 15.00172
vt 1.57403 15.00172
vt 2.09903 15.00172
vt 2.09903 11.25172
vt 2.09903 7.501718
vt 2.09903 3.751718
vt 2.09903 0.001717567
vt 2.09903 -3.748282
vt 2.09903 -7.498282
vt 2.09903 -11.24828
vt 2.09903 -14.99828
vt -2.10097 -14.99828
vt -2.10097 15.00172
vt -1.57597 15.00172
vt -1.05097 15.00172
vt -0.5259699 15.00172
vt -0.0009698868 15.00172
vt 0.5240302 15.00172
vt -1.575 0.0009698868
vt -2.1 0.0009698868
vt -2.1 0.5259699
vt -1.575 0.5259697
vt -2.1 1.05097
vt -1.575 1.05097
vt -2.1 1.57597
vt -1.575 1.57597
vt -2.1 2.10097
vt -1.575 2.10097
vt -1.05 2.10097
vt -1.05 1.57597
vt -0.525 2.10097
vt -0.525 1.57597
vt 0 2.10097
vt 0 1.57597
vt 2.1 0.0009698868
vt 1.575 0.0009698868
vt 1.575 0.5259697
vt 2.1 0.5259699
vt 1.575 1.05097
vt 2.1 1.05097
vt 0.5250001 2.10097
vt 0.5250001 1.57597
vt 1.05 2.10097
vt 1.05 1.57597
vt 1.575 1.57597
vt 2.1 1.57597
vt 1.575 2.10097
vt 2.1 2.10097
vt 2.1 -2.09903
vt 1.575 -2.09903
vt 1.575 -1.57403
vt 2.1 -1.57403
vt 1.05 -2.09903
vt 1.05 -1.57403
vt 1.575 -1.04903
vt 2.1 -1.04903
vt 0.5250001 -2.09903
vt 0.5250001 -1.57403
vt 0 -2.09903
vt 0 -1.57403
vt 1.575 -0.5240302
vt 2.1 -0.5240302
vt -0.525 -2.09903
vt -0.525 -1.57403
vt -1.05 -2.09903
vt -1.05 -1.57403
vt -1.575 -2.09903
vt -1.575 -1.57403
vt -2.1 -2.09903
vt -2.1 -1.57403
vt -2.1 -1.04903
vt -1.575 -1.04903
vt -2.1 -0.5240302
vt -1.575 -0.5240302
vt 0.525 -2.09903
vt -0.5250001 -2.09903
vt -1.04903 -15.00172
vt -1.57403 -15.00172
vt 1.57403 -15.00172
vt 1.04903 -15.00172
vt -0.0009698868 -15.00172
vt -0.5259697 -15.00172
vt 0.5240302 -15.00172
vt -1.05097 -15.00172
vt -1.57597 -15.00172
vt 1.574999 -15.00172
vt 1.050002 -15.00172
vt 0.5250001 -15.00172
vt -1.430511E-06 -15.00172
vt -0.5249991 -15.00172
vt -1.050001 -15.00172
vt -1.574998 -15.00172
vt 1.57597 -15.00172
vt 1.05097 -15.00172
vt 0.5259697 -15.00172
vt 0.0009698868 -15.00172
vt -0.5240302 -15.00172
vt -1.050001 -7.493002
vt -1.574999 -7.493002
vt -1.050001 15.00172
vt -0.5250008 -7.493002
vt 1.430511E-06 -7.493002
vt 0.5249991 -7.493002
vt 1.050001 15.00172
vt 1.050001 -7.493002
vt 1.574998 -7.493002
vt 1.05 -7.493002
vt -1.050002 -1.57403
vt -1.050002 -2.10097
vt -1.574999 -2.100969
vt -0.5250001 -1.57403
vt -0.5250001 -2.100969
vt 1.430511E-06 -2.100969
vt 0.5249991 -1.57403
vt 0.5249991 -2.100969
vt 1.050001 -1.57403
vt 1.050001 -2.10097
vt 1.574998 -2.100969
vt -1.57403 -7.493002
vt -2.100969 -7.493002
vt -1.57403 -14.9955
vt -2.100969 -14.9955
vt 2.100969 -7.493002
vt 1.57403 -7.493002
vt 2.100969 -14.9955
vt 1.57403 -14.9955

vn 0 0 1
vn -1 0 0
vn 0 0 -1
vn 1 0 0
vn 0 1 0
vn 0 -1 0

g Tower
usemtl ProBuilderDefault
f 11/11/1 2/2/1 1/1/1
f 11/11/1 10/10/1 2/2/1
f 10/10/1 9/9/1 2/2/1
f 9/9/1 8/8/1 2/2/1
f 2/2/1 8/8/1 3/3/1
f 3/3/1 8/8/1 7/7/1
f 3/3/1 7/7/1 6/6/1
f 3/3/1 6/6/1 5/5/1
f 5/5/1 4/4/1 3/3/1
f 13/14/2 12/13/2 3/12/2
f 14/15/2 13/14/2 3/12/2
f 15/16/2 14/15/2 3/12/2
f 16/17/2 15/16/2 3/12/2
f 4/29/2 16/17/2 3/12/2
f 16/17/2 4/29/2 27/28/2
f 16/17/2 27/28/2 26/27/2
f 26/27/2 17/18/2 16/17/2
f 26/27/2 25/26/2 17/18/2
f 17/18/2 25/26/2 24/25/2
f 17/18/2 24/25/2 23/24/2
f 23/24/2 18/19/2 17/18/2
f 23/24/2 22/23/2 18/19/2
f 22/23/2 19/20/2 18/19/2
f 22/23/2 21/22/2 19/20/2
f 21/22/2 20/21/2 19/20/2
f 61/95/4 58/94/4 91/93/4
f 61/95/4 91/93/4 90/92/4
f 66/96/4 61/95/4 90/92/4
f 66/96/4 90/92/4 96/109/4
f 77/97/4 66/96/4 96/109/4
f 96/109/4 95/108/4 77/97/4
f 95/108/4 94/107/4 77/97/4
f 77/97/4 94/107/4 93/106/4
f 42/98/4 77/97/4 93/106/4
f 93/106/4 92/105/4 42/98/4
f 92/105/4 1/104/4 42/98/4
f 2/103/4 42/98/4 1/104/4
f 2/103/4 45/99/4 42/98/4
f 2/103/4 50/100/4 45/99/4
f 2/103/4 55/101/4 50/100/4
f 2/103/4 57/102/4 55/101/4
f 3/118/6 123/150/6 2/139/6
f 3/118/6 124/167/6 123/150/6
f 3/118/6 125/156/6 124/167/6
f 3/118/6 41/158/6 125/156/6
f 3/118/6 12/160/6 41/158/6
f 123/150/6 122/166/6 2/139/6
f 122/166/6 121/144/6 2/139/6
f 121/144/6 56/141/6 2/139/6
f 56/141/6 57/140/6 2/139/6
f 30/32/3 29/31/3 28/30/3
f 28/30/3 31/33/3 30/32/3
f 32/34/3 29/31/3 30/32/3
f 30/32/3 33/35/3 32/34/3
f 33/35/3 30/32/3 35/37/3
f 35/37/3 34/36/3 33/35/3
f 30/32/3 31/33/3 36/38/3
f 36/38/3 35/37/3 30/32/3
f 37/39/3 29/31/3 32/34/3
f 32/34/3 38/40/3 37/39/3
f 29/31/3 37/39/3 39/41/3
f 39/41/3 28/30/3 29/31/3
f 16/42/3 39/41/3 37/39/3
f 37/39/3 15/43/3 16/42/3
f 15/43/3 37/39/3 38/40/3
f 38/40/3 14/44/3 15/43/3
f 13/45/3 14/44/3 38/40/3
f 38/40/3 40/46/3 13/45/3
f 12/2/3 13/45/3 40/46/3
f 40/46/3 41/47/3 12/2/3
f 44/50/3 43/49/3 42/48/3
f 42/48/3 45/51/3 44/50/3
f 47/53/3 46/52/3 43/49/3
f 43/49/3 44/50/3 47/53/3
f 48/54/3 47/53/3 44/50/3
f 44/50/3 49/55/3 48/54/3
f 49/55/3 44/50/3 45/51/3
f 45/51/3 50/56/3 49/55/3
f 47/53/3 52/58/3 51/57/3
f 51/57/3 46/52/3 47/53/3
f 36/38/3 51/57/3 52/58/3
f 52/58/3 35/37/3 36/38/3
f 34/36/3 35/37/3 52/58/3
f 52/58/3 53/59/3 34/36/3
f 48/54/3 53/59/3 52/58/3
f 52/58/3 47/53/3 48/54/3
f 54/60/3 49/55/3 50/56/3
f 50/56/3 55/61/3 54/60/3
f 56/62/3 54/60/3 55/61/3
f 55/61/3 57/3/3 56/62/3
f 60/63/3 59/5/3 58/4/3
f 58/4/3 61/64/3 60/63/3
f 63/65/3 62/6/3 59/5/3
f 59/5/3 60/63/3 63/65/3
f 64/66/3 63/65/3 60/63/3
f 60/63/3 65/67/3 64/66/3
f 65/67/3 60/63/3 61/64/3
f 61/64/3 66/68/3 65/67/3
f 63/65/3 68/70/3 67/69/3
f 67/69/3 62/6/3 63/65/3
f 69/8/3 67/69/3 68/70/3
f 68/70/3 70/71/3 69/8/3
f 71/72/3 70/71/3 68/70/3
f 68/70/3 72/73/3 71/72/3
f 64/66/3 72/73/3 68/70/3
f 68/70/3 63/65/3 64/66/3
f 74/75/3 73/74/3 72/73/3
f 72/73/3 64/66/3 74/75/3
f 71/72/3 72/73/3 73/74/3
f 73/74/3 75/76/3 71/72/3
f 36/38/3 75/76/3 73/74/3
f 73/74/3 51/57/3 36/38/3
f 46/52/3 51/57/3 73/74/3
f 73/74/3 74/75/3 46/52/3
f 76/77/3 65/67/3 66/68/3
f 66/68/3 77/78/3 76/77/3
f 74/75/3 64/66/3 65/67/3
f 65/67/3 76/77/3 74/75/3
f 46/52/3 74/75/3 76/77/3
f 76/77/3 43/49/3 46/52/3
f 43/49/3 76/77/3 77/78/3
f 77/78/3 42/48/3 43/49/3
f 80/80/3 79/79/3 78/10/3
f 78/10/3 81/81/3 80/80/3
f 82/82/3 79/79/3 80/80/3
f 80/80/3 83/83/3 82/82/3
f 83/83/3 80/80/3 70/71/3
f 70/71/3 71/72/3 83/83/3
f 80/80/3 81/81/3 69/8/3
f 69/8/3 70/71/3 80/80/3
f 84/84/3 79/79/3 82/82/3
f 82/82/3 85/85/3 84/84/3
f 79/79/3 84/84/3 86/11/3
f 86/11/3 78/10/3 79/79/3
f 20/1/3 86/11/3 84/84/3
f 84/84/3 19/86/3 20/1/3
f 19/86/3 84/84/3 85/85/3
f 85/85/3 18/87/3 19/86/3
f 88/89/3 87/88/3 85/85/3
f 85/85/3 82/82/3 88/89/3
f 17/90/3 18/87/3 85/85/3
f 85/85/3 87/88/3 17/90/3
f 16/42/3 17/90/3 87/88/3
f 87/88/3 39/41/3 16/42/3
f 39/41/3 87/88/3 88/89/3
f 88/89/3 28/30/3 39/41/3
f 88/89/3 82/82/3 83/83/3
f 83/83/3 89/91/3 88/89/3
f 31/33/3 28/30/3 88/89/3
f 88/89/3 89/91/3 31/33/3
f 31/33/3 89/91/3 75/76/3
f 75/76/3 36/38/3 31/33/3
f 89/91/3 83/83/3 71/72/3
f 71/72/3 75/76/3 89/91/3
f 95/111/5 97/110/5 98/113/5
f 98/113/5 94/112/5 95/111/5
f 93/114/5 94/112/5 98/113/5
f 98/113/5 99/115/5 93/114/5
f 92/116/5 93/114/5 99/115/5
f 99/115/5 100/117/5 92/116/5
f 1/118/5 92/116/5 100/117/5
f 100/117/5 11/119/5 1/118/5
f 11/119/5 100/117/5 101/121/5
f 101/121/5 10/120/5 11/119/5
f 10/120/5 101/121/5 102/123/5
f 102/123/5 9/122/5 10/120/5
f 9/122/5 102/123/5 103/125/5
f 103/125/5 8/124/5 9/122/5
f 105/128/5 104/127/5 24/126/5
f 24/126/5 25/129/5 105/128/5
f 106/130/5 105/128/5 25/129/5
f 25/129/5 26/131/5 106/130/5
f 8/124/5 103/125/5 107/133/5
f 107/133/5 7/132/5 8/124/5
f 7/132/5 107/133/5 108/135/5
f 108/135/5 6/134/5 7/132/5
f 109/136/5 106/130/5 26/131/5
f 26/131/5 27/137/5 109/136/5
f 6/134/5 108/135/5 109/136/5
f 109/136/5 5/138/5 6/134/5
f 5/138/5 109/136/5 27/137/5
f 27/137/5 4/139/5 5/138/5
f 110/142/5 86/141/5 20/140/5
f 20/140/5 21/143/5 110/142/5
f 111/145/5 78/144/5 86/141/5
f 86/141/5 110/142/5 111/145/5
f 112/146/5 110/142/5 21/143/5
f 21/143/5 22/147/5 112/146/5
f 81/148/5 78/144/5 111/145/5
f 111/145/5 113/149/5 81/148/5
f 114/151/5 69/150/5 81/148/5
f 81/148/5 113/149/5 114/151/5
f 115/152/5 112/146/5 22/147/5
f 22/147/5 23/153/5 115/152/5
f 104/127/5 115/152/5 23/153/5
f 23/153/5 24/126/5 104/127/5
f 116/155/5 67/154/5 69/150/5
f 69/150/5 114/151/5 116/155/5
f 117/157/5 62/156/5 67/154/5
f 67/154/5 116/155/5 117/157/5
f 59/158/5 62/156/5 117/157/5
f 117/157/5 118/159/5 59/158/5
f 91/161/5 58/160/5 59/158/5
f 59/158/5 118/159/5 91/161/5
f 91/161/5 118/159/5 119/163/5
f 119/163/5 90/162/5 91/161/5
f 96/164/5 90/162/5 119/163/5
f 119/163/5 120/165/5 96/164/5
f 95/111/5 96/164/5 120/165/5
f 120/165/5 97/110/5 95/111/5
f 126/168/2 119/23/2 118/22/2
f 118/22/2 127/169/2 126/168/2
f 128/170/4 110/93/4 112/92/4
f 112/92/4 129/171/4 128/170/4
f 130/172/4 104/108/4 105/107/4
f 105/107/4 131/173/4 130/172/4
f 129/171/4 112/92/4 115/109/4
f 115/109/4 132/174/4 129/171/4
f 131/173/4 105/107/4 106/106/4
f 106/106/4 133/175/4 131/173/4
f 132/174/4 115/109/4 104/108/4
f 104/108/4 130/172/4 132/174/4
f 133/175/4 106/106/4 109/105/4
f 109/105/4 134/176/4 133/175/4
f 134/177/3 109/11/3 108/10/3
f 108/10/3 135/178/3 134/177/3
f 135/178/3 108/10/3 107/81/3
f 107/81/3 136/179/3 135/178/3
f 136/179/3 107/81/3 103/8/3
f 103/8/3 137/180/3 136/179/3
f 137/180/3 103/8/3 102/69/3
f 102/69/3 138/181/3 137/180/3
f 138/181/3 102/69/3 101/6/3
f 101/6/3 139/182/3 138/181/3
f 139/182/3 101/6/3 100/5/3
f 100/5/3 140/183/3 139/182/3
f 140/184/2 100/28/2 99/27/2
f 99/27/2 141/185/2 140/184/2
f 141/185/2 99/27/2 98/26/2
f 98/26/2 142/186/2 141/185/2
f 142/186/2 98/26/2 97/25/2
f 97/25/2 143/187/2 142/186/2
f 143/187/2 97/25/2 120/24/2
f 120/24/2 144/188/2 143/187/2
f 144/188/2 120/24/2 119/23/2
f 119/23/2 126/168/2 144/188/2
f 145/189/1 111/6/1 110/5/1
f 110/5/1 146/190/1 145/189/1
f 147/192/1 113/7/1 111/191/1
f 111/191/1 145/189/1 147/192/1
f 148/193/1 114/8/1 113/7/1
f 113/7/1 147/192/1 148/193/1
f 149/194/1 116/9/1 114/8/1
f 114/8/1 148/193/1 149/194/1
f 150/196/1 117/195/1 116/81/1
f 116/81/1 149/194/1 150/196/1
f 151/197/1 118/11/1 117/10/1
f 117/10/1 150/198/1 151/197/1
f 152/200/6 145/199/6 146/159/6
f 146/159/6 153/201/6 152/200/6
f 154/203/6 147/202/6 145/199/6
f 145/199/6 152/200/6 154/203/6
f 155/204/6 148/151/6 147/202/6
f 147/202/6 154/203/6 155/204/6
f 156/206/6 149/205/6 148/151/6
f 148/151/6 155/204/6 156/206/6
f 157/208/6 150/207/6 149/205/6
f 149/205/6 156/206/6 157/208/6
f 158/209/6 151/142/6 150/207/6
f 150/207/6 157/208/6 158/209/6
f 159/212/2 151/210/2 158/211/2
f 158/211/2 160/213/2 159/212/2
f 161/216/4 153/214/4 146/215/4
f 146/215/4 162/217/4 161/216/4

