# ProBuilder 4.0.5
# https://unity3d.com/unity/features/worldbuilding/probuilder
# 1/26/2020 6:15:52 PM

mtllib ./TowerPlatform.mtl
o TowerPlatform

g TowerPlatform
v -4.5 -0.25 9
v -6.75 -0.25 9
v -9 -0.25 9
v -9 0.25 9
v -6.75 0.25 9
v -4.5 0.25 9
v -2.25 0.25 9
v 0 0.25 9
v 2.25 0.25 9
v 4.5 0.25 9
v 6.75 0.25 9
v 9 0.25 9
v 9 -0.25 9
v 6.75 -0.25 9
v 4.5 -0.25 9
v 2.25 -0.25 9
v 0 -0.25 9
v -2.25 -0.25 9
v -9 -0.25 -4.5
v -9 -0.25 -6.75
v -9 -0.25 -9
v -9 0.25 -9
v -9 0.25 -6.75
v -9 0.25 -4.5
v -9 0.25 -2.25
v -9 0.25 0
v -9 0.25 2.25
v -9 0.25 4.5
v -9 0.25 6.75
v -9 -0.25 6.75
v -9 -0.25 4.5
v -9 -0.25 2.25
v -9 -0.25 0
v -9 -0.25 -2.25
v -4.5 0.25 -9
v -6.75 0.25 -9
v -6.75 -0.25 -9
v -4.5 -0.25 -9
v -2.25 -0.25 -9
v 0 -0.25 -9
v 2.25 -0.25 -9
v 4.5 -0.25 -9
v 6.75 -0.25 -9
v 9 -0.25 -9
v 9 0.25 -9
v 6.75 0.25 -9
v 4.5 0.25 -9
v 2.25 0.25 -9
v 0 0.25 -9
v -2.25 0.25 -9
v 9 0.25 -4.5
v 9 0.25 -6.75
v 9 -0.25 -6.75
v 9 -0.25 -4.5
v 9 -0.25 -2.25
v 9 -0.25 0
v 9 -0.25 2.25
v 9 -0.25 4.5
v 9 -0.25 6.75
v 9 0.25 6.75
v 9 0.25 4.5
v 9 0.25 2.25
v 9 0.25 0
v 9 0.25 -2.25
v 2.25 0.25 0
v 4.5 0.25 0
v 4.5 0.25 2.25
v 2.25 0.25 2.25
v 4.5 0.25 4.5
v 2.25 0.25 4.5
v 0 0.25 4.5
v 0 0.25 2.25
v 6.75 0.25 0
v 6.75 0.25 2.25
v 6.75 0.25 4.5
v 6.75 0.25 6.75
v 4.5 0.25 6.75
v 2.25 0.25 6.75
v 0 0.25 6.75
v -6.75 0.25 0
v -6.75 0.25 2.25
v -4.5 0.25 0
v -4.5 0.25 2.25
v -4.5 0.25 4.5
v -6.75 0.25 4.5
v -2.25 0.25 0
v -2.25 0.25 2.25
v -2.25 0.25 4.5
v -2.25 0.25 6.75
v -4.5 0.25 6.75
v -6.75 0.25 6.75
v -6.75 0.25 -6.75
v -4.5 0.25 -6.75
v -4.5 0.25 -4.5
v -6.75 0.25 -4.5
v -2.25 0.25 -6.75
v 0 0.25 -6.75
v 0 0.25 -4.5
v -2.25 0.25 -4.5
v -2.25 0.25 -2.25
v -4.5 0.25 -2.25
v 0 0.25 -2.25
v -6.75 0.25 -2.25
v 2.25 0.25 -6.75
v 4.5 0.25 -6.75
v 4.5 0.25 -4.5
v 2.25 0.25 -4.5
v 6.75 0.25 -6.75
v 6.75 0.25 -4.5
v 6.75 0.25 -2.25
v 4.5 0.25 -2.25
v 2.25 0.25 -2.25
v 0 -0.25 -6.75
v 2.25 -0.25 -6.75
v 0 -0.25 -4.5
v 2.25 -0.25 -4.5
v 4.5 -0.25 -4.5
v 4.5 -0.25 -6.75
v 0 -0.25 -2.25
v 2.25 -0.25 -2.25
v 2.25 -0.25 0
v 4.5 -0.25 0
v 4.5 -0.25 -2.25
v 6.75 -0.25 -2.25
v 6.75 -0.25 -4.5
v 6.75 -0.25 0
v 6.75 -0.25 -6.75
v -6.75 -0.25 -6.75
v -6.75 -0.25 -4.5
v -4.5 -0.25 -4.5
v -4.5 -0.25 -6.75
v -6.75 -0.25 -2.25
v -6.75 -0.25 0
v -4.5 -0.25 0
v -4.5 -0.25 -2.25
v -2.25 -0.25 -2.25
v -2.25 -0.25 -4.5
v -2.25 -0.25 0
v -2.25 -0.25 -6.75
v -6.75 -0.25 2.25
v -6.75 -0.25 4.5
v -4.5 -0.25 4.5
v -4.5 -0.25 2.25
v -6.75 -0.25 6.75
v -4.5 -0.25 6.75
v -2.25 -0.25 6.75
v -2.25 -0.25 4.5
v 0 -0.25 6.75
v 0 -0.25 4.5
v -2.25 -0.25 2.25
v 0 -0.25 2.25
v 2.25 -0.25 4.5
v 2.25 -0.25 2.25
v 4.5 -0.25 4.5
v 4.5 -0.25 2.25
v 2.25 -0.25 6.75
v 4.5 -0.25 6.75
v 6.75 -0.25 6.75
v 6.75 -0.25 4.5
v 6.75 -0.25 2.25
v -2.25 -0.2630978 0
v -2.25 -0.2630978 2.25
v -2.25 -0.2630978 -2.25
v 0 -0.2630978 -2.25
v 2.25 -0.2630978 -2.25
v 2.25 -0.2630978 0
v 2.25 -0.2630978 2.25
v 0 -0.2630978 2.25

vt -4.5 -0.25
vt -6.75 -0.25
vt -9 -0.25
vt -9 0.25
vt -6.75 0.25
vt -4.5 0.25
vt -2.25 0.25
vt 0 0.25
vt 2.25 0.25
vt 4.5 0.25
vt 6.75 0.25
vt 9 0.25
vt 9 -0.25
vt 6.75 -0.25
vt 4.5 -0.25
vt 2.25 -0.25
vt 0 -0.25
vt -2.25 -0.25
vt -2.25 0
vt -4.5 0
vt -4.5 2.25
vt -2.25 2.25
vt -4.5 4.5
vt -2.25 4.5
vt 0 4.5
vt 0 2.25
vt -6.75 0
vt -6.75 2.25
vt -9 0
vt -9 2.25
vt -9 4.5
vt -6.75 4.5
vt -6.75 6.75
vt -4.5 6.75
vt -9 6.75
vt -9 9
vt -6.75 9
vt -4.5 9
vt -2.25 6.75
vt 0 6.75
vt -2.25 9
vt 0 9
vt 9 0
vt 6.75 0
vt 6.75 2.25
vt 9 2.25
vt 4.5 0
vt 4.5 2.25
vt 4.5 4.5
vt 6.75 4.5
vt 9 4.5
vt 2.25 0
vt 2.25 2.25
vt 2.25 4.5
vt 2.25 6.75
vt 4.5 6.75
vt 2.25 9
vt 4.5 9
vt 6.75 6.75
vt 9 6.75
vt 6.75 9
vt 9 9
vt 9 -9
vt 6.75 -9
vt 6.75 -6.75
vt 9 -6.75
vt 4.5 -9
vt 4.5 -6.75
vt 4.5 -4.5
vt 6.75 -4.5
vt 9 -4.5
vt 2.25 -9
vt 2.25 -6.75
vt 0 -9
vt 0 -6.75
vt 0 -4.5
vt 2.25 -4.5
vt 2.25 -2.25
vt 4.5 -2.25
vt 0 -2.25
vt 6.75 -2.25
vt 9 -2.25
vt -2.25 -9
vt -2.25 -6.75
vt -4.5 -9
vt -4.5 -6.75
vt -4.5 -4.5
vt -2.25 -4.5
vt -6.75 -9
vt -6.75 -6.75
vt -9 -9
vt -9 -6.75
vt -9 -4.5
vt -6.75 -4.5
vt -6.75 -2.25
vt -4.5 -2.25
vt -9 -2.25
vt -2.25 -2.25
vt 0 -0.2630978
vt -2.25 -0.2630978
vt 2.25 -0.2630978

vn 0 0 1
vn -1 0 0
vn 0 0 -1
vn 1 0 0
vn 0 1 0
vn 0 -1 0

g TowerPlatform
usemtl ProBuilderDefault
f 4/4/1 3/3/1 2/2/1
f 11/11/1 13/13/1 12/12/1
f 11/11/1 14/14/1 13/13/1
f 10/10/1 14/14/1 11/11/1
f 10/10/1 15/15/1 14/14/1
f 9/9/1 15/15/1 10/10/1
f 9/9/1 16/16/1 15/15/1
f 8/8/1 16/16/1 9/9/1
f 8/8/1 17/17/1 16/16/1
f 7/7/1 17/17/1 8/8/1
f 7/7/1 18/18/1 17/17/1
f 6/6/1 18/18/1 7/7/1
f 6/6/1 1/1/1 18/18/1
f 5/5/1 1/1/1 6/6/1
f 5/5/1 2/2/1 1/1/1
f 4/4/1 2/2/1 5/5/1
f 22/4/2 21/3/2 20/2/2
f 29/11/2 3/13/2 4/12/2
f 29/11/2 30/14/2 3/13/2
f 28/10/2 30/14/2 29/11/2
f 28/10/2 31/15/2 30/14/2
f 27/9/2 31/15/2 28/10/2
f 27/9/2 32/16/2 31/15/2
f 26/8/2 32/16/2 27/9/2
f 26/8/2 33/17/2 32/16/2
f 25/7/2 33/17/2 26/8/2
f 25/7/2 34/18/2 33/17/2
f 24/6/2 34/18/2 25/7/2
f 24/6/2 19/1/2 34/18/2
f 23/5/2 19/1/2 24/6/2
f 23/5/2 20/2/2 19/1/2
f 22/4/2 20/2/2 23/5/2
f 36/11/3 37/14/3 22/12/3
f 38/15/3 37/14/3 36/11/3
f 35/10/3 38/15/3 36/11/3
f 39/16/3 38/15/3 35/10/3
f 50/9/3 39/16/3 35/10/3
f 40/17/3 39/16/3 50/9/3
f 49/8/3 40/17/3 50/9/3
f 41/18/3 40/17/3 49/8/3
f 48/7/3 41/18/3 49/8/3
f 42/1/3 41/18/3 48/7/3
f 47/6/3 42/1/3 48/7/3
f 43/2/3 42/1/3 47/6/3
f 46/5/3 43/2/3 47/6/3
f 44/3/3 43/2/3 46/5/3
f 45/4/3 44/3/3 46/5/3
f 37/14/3 21/13/3 22/12/3
f 52/11/4 53/14/4 45/12/4
f 54/15/4 53/14/4 52/11/4
f 51/10/4 54/15/4 52/11/4
f 55/16/4 54/15/4 51/10/4
f 64/9/4 55/16/4 51/10/4
f 56/17/4 55/16/4 64/9/4
f 63/8/4 56/17/4 64/9/4
f 57/18/4 56/17/4 63/8/4
f 62/7/4 57/18/4 63/8/4
f 58/1/4 57/18/4 62/7/4
f 61/6/4 58/1/4 62/7/4
f 59/2/4 58/1/4 61/6/4
f 60/5/4 59/2/4 61/6/4
f 13/3/4 59/2/4 60/5/4
f 12/4/4 13/3/4 60/5/4
f 53/14/4 44/13/4 45/12/4
f 67/21/5 66/20/5 65/19/5
f 65/19/5 68/22/5 67/21/5
f 69/23/5 67/21/5 68/22/5
f 68/22/5 70/24/5 69/23/5
f 70/24/5 68/22/5 72/26/5
f 72/26/5 71/25/5 70/24/5
f 74/28/5 73/27/5 66/20/5
f 66/20/5 67/21/5 74/28/5
f 62/30/5 63/29/5 73/27/5
f 73/27/5 74/28/5 62/30/5
f 61/31/5 62/30/5 74/28/5
f 74/28/5 75/32/5 61/31/5
f 75/32/5 74/28/5 67/21/5
f 67/21/5 69/23/5 75/32/5
f 76/33/5 75/32/5 69/23/5
f 69/23/5 77/34/5 76/33/5
f 60/35/5 61/31/5 75/32/5
f 75/32/5 76/33/5 60/35/5
f 12/36/5 60/35/5 76/33/5
f 76/33/5 11/37/5 12/36/5
f 11/37/5 76/33/5 77/34/5
f 77/34/5 10/38/5 11/37/5
f 78/39/5 70/24/5 71/25/5
f 71/25/5 79/40/5 78/39/5
f 77/34/5 69/23/5 70/24/5
f 70/24/5 78/39/5 77/34/5
f 10/38/5 77/34/5 78/39/5
f 78/39/5 9/41/5 10/38/5
f 9/41/5 78/39/5 79/40/5
f 79/40/5 8/42/5 9/41/5
f 81/45/5 80/44/5 26/43/5
f 26/43/5 27/46/5 81/45/5
f 83/48/5 82/47/5 80/44/5
f 80/44/5 81/45/5 83/48/5
f 84/49/5 83/48/5 81/45/5
f 81/45/5 85/50/5 84/49/5
f 85/50/5 81/45/5 27/46/5
f 27/46/5 28/51/5 85/50/5
f 87/53/5 86/52/5 82/47/5
f 82/47/5 83/48/5 87/53/5
f 71/25/5 72/26/5 87/53/5
f 87/53/5 88/54/5 71/25/5
f 88/54/5 87/53/5 83/48/5
f 83/48/5 84/49/5 88/54/5
f 89/55/5 88/54/5 84/49/5
f 84/49/5 90/56/5 89/55/5
f 79/40/5 71/25/5 88/54/5
f 88/54/5 89/55/5 79/40/5
f 8/42/5 79/40/5 89/55/5
f 89/55/5 7/57/5 8/42/5
f 7/57/5 89/55/5 90/56/5
f 90/56/5 6/58/5 7/57/5
f 91/59/5 85/50/5 28/51/5
f 28/51/5 29/60/5 91/59/5
f 90/56/5 84/49/5 85/50/5
f 85/50/5 91/59/5 90/56/5
f 6/58/5 90/56/5 91/59/5
f 91/59/5 5/61/5 6/58/5
f 5/61/5 91/59/5 29/60/5
f 29/60/5 4/62/5 5/61/5
f 92/65/5 36/64/5 22/63/5
f 22/63/5 23/66/5 92/65/5
f 93/68/5 35/67/5 36/64/5
f 36/64/5 92/65/5 93/68/5
f 94/69/5 93/68/5 92/65/5
f 92/65/5 95/70/5 94/69/5
f 95/70/5 92/65/5 23/66/5
f 23/66/5 24/71/5 95/70/5
f 96/73/5 50/72/5 35/67/5
f 35/67/5 93/68/5 96/73/5
f 97/75/5 49/74/5 50/72/5
f 50/72/5 96/73/5 97/75/5
f 98/76/5 97/75/5 96/73/5
f 96/73/5 99/77/5 98/76/5
f 99/77/5 96/73/5 93/68/5
f 93/68/5 94/69/5 99/77/5
f 100/78/5 99/77/5 94/69/5
f 94/69/5 101/79/5 100/78/5
f 102/80/5 98/76/5 99/77/5
f 99/77/5 100/78/5 102/80/5
f 86/52/5 100/78/5 101/79/5
f 101/79/5 82/47/5 86/52/5
f 103/81/5 95/70/5 24/71/5
f 24/71/5 25/82/5 103/81/5
f 101/79/5 94/69/5 95/70/5
f 95/70/5 103/81/5 101/79/5
f 82/47/5 101/79/5 103/81/5
f 103/81/5 80/44/5 82/47/5
f 80/44/5 103/81/5 25/82/5
f 25/82/5 26/43/5 80/44/5
f 104/84/5 48/83/5 49/74/5
f 49/74/5 97/75/5 104/84/5
f 105/86/5 47/85/5 48/83/5
f 48/83/5 104/84/5 105/86/5
f 106/87/5 105/86/5 104/84/5
f 104/84/5 107/88/5 106/87/5
f 107/88/5 104/84/5 97/75/5
f 97/75/5 98/76/5 107/88/5
f 108/90/5 46/89/5 47/85/5
f 47/85/5 105/86/5 108/90/5
f 52/92/5 45/91/5 46/89/5
f 46/89/5 108/90/5 52/92/5
f 51/93/5 52/92/5 108/90/5
f 108/90/5 109/94/5 51/93/5
f 109/94/5 108/90/5 105/86/5
f 105/86/5 106/87/5 109/94/5
f 110/95/5 109/94/5 106/87/5
f 106/87/5 111/96/5 110/95/5
f 64/97/5 51/93/5 109/94/5
f 109/94/5 110/95/5 64/97/5
f 63/29/5 64/97/5 110/95/5
f 110/95/5 73/27/5 63/29/5
f 73/27/5 110/95/5 111/96/5
f 111/96/5 66/20/5 73/27/5
f 112/98/5 107/88/5 98/76/5
f 98/76/5 102/80/5 112/98/5
f 111/96/5 106/87/5 107/88/5
f 107/88/5 112/98/5 111/96/5
f 66/20/5 111/96/5 112/98/5
f 112/98/5 65/19/5 66/20/5
f 114/73/6 113/75/6 40/74/6
f 40/74/6 41/72/6 114/73/6
f 116/77/6 115/76/6 113/75/6
f 113/75/6 114/73/6 116/77/6
f 117/69/6 116/77/6 114/73/6
f 114/73/6 118/68/6 117/69/6
f 118/68/6 114/73/6 41/72/6
f 41/72/6 42/67/6 118/68/6
f 120/78/6 119/80/6 115/76/6
f 115/76/6 116/77/6 120/78/6
f 122/47/6 121/52/6 120/78/6
f 120/78/6 123/79/6 122/47/6
f 123/79/6 120/78/6 116/77/6
f 116/77/6 117/69/6 123/79/6
f 124/81/6 123/79/6 117/69/6
f 117/69/6 125/70/6 124/81/6
f 126/44/6 122/47/6 123/79/6
f 123/79/6 124/81/6 126/44/6
f 56/43/6 126/44/6 124/81/6
f 124/81/6 55/82/6 56/43/6
f 55/82/6 124/81/6 125/70/6
f 125/70/6 54/71/6 55/82/6
f 127/65/6 118/68/6 42/67/6
f 42/67/6 43/64/6 127/65/6
f 125/70/6 117/69/6 118/68/6
f 118/68/6 127/65/6 125/70/6
f 54/71/6 125/70/6 127/65/6
f 127/65/6 53/66/6 54/71/6
f 53/66/6 127/65/6 43/64/6
f 43/64/6 44/63/6 53/66/6
f 128/90/6 20/92/6 21/91/6
f 21/91/6 37/89/6 128/90/6
f 129/94/6 19/93/6 20/92/6
f 20/92/6 128/90/6 129/94/6
f 130/87/6 129/94/6 128/90/6
f 128/90/6 131/86/6 130/87/6
f 131/86/6 128/90/6 37/89/6
f 37/89/6 38/85/6 131/86/6
f 132/95/6 34/97/6 19/93/6
f 19/93/6 129/94/6 132/95/6
f 133/27/6 33/29/6 34/97/6
f 34/97/6 132/95/6 133/27/6
f 134/20/6 133/27/6 132/95/6
f 132/95/6 135/96/6 134/20/6
f 135/96/6 132/95/6 129/94/6
f 129/94/6 130/87/6 135/96/6
f 136/98/6 135/96/6 130/87/6
f 130/87/6 137/88/6 136/98/6
f 138/19/6 134/20/6 135/96/6
f 135/96/6 136/98/6 138/19/6
f 119/80/6 136/98/6 137/88/6
f 137/88/6 115/76/6 119/80/6
f 139/84/6 131/86/6 38/85/6
f 38/85/6 39/83/6 139/84/6
f 137/88/6 130/87/6 131/86/6
f 131/86/6 139/84/6 137/88/6
f 115/76/6 137/88/6 139/84/6
f 139/84/6 113/75/6 115/76/6
f 113/75/6 139/84/6 39/83/6
f 39/83/6 40/74/6 113/75/6
f 140/28/6 32/30/6 33/29/6
f 33/29/6 133/27/6 140/28/6
f 141/32/6 31/31/6 32/30/6
f 32/30/6 140/28/6 141/32/6
f 142/23/6 141/32/6 140/28/6
f 140/28/6 143/21/6 142/23/6
f 143/21/6 140/28/6 133/27/6
f 133/27/6 134/20/6 143/21/6
f 144/33/6 30/35/6 31/31/6
f 31/31/6 141/32/6 144/33/6
f 2/37/6 3/36/6 30/35/6
f 30/35/6 144/33/6 2/37/6
f 1/38/6 2/37/6 144/33/6
f 144/33/6 145/34/6 1/38/6
f 145/34/6 144/33/6 141/32/6
f 141/32/6 142/23/6 145/34/6
f 146/39/6 145/34/6 142/23/6
f 142/23/6 147/24/6 146/39/6
f 18/41/6 1/38/6 145/34/6
f 145/34/6 146/39/6 18/41/6
f 17/42/6 18/41/6 146/39/6
f 146/39/6 148/40/6 17/42/6
f 148/40/6 146/39/6 147/24/6
f 147/24/6 149/25/6 148/40/6
f 150/22/6 143/21/6 134/20/6
f 134/20/6 138/19/6 150/22/6
f 147/24/6 142/23/6 143/21/6
f 143/21/6 150/22/6 147/24/6
f 149/25/6 147/24/6 150/22/6
f 150/22/6 151/26/6 149/25/6
f 152/54/6 149/25/6 151/26/6
f 151/26/6 153/53/6 152/54/6
f 154/49/6 152/54/6 153/53/6
f 153/53/6 155/48/6 154/49/6
f 155/48/6 153/53/6 121/52/6
f 121/52/6 122/47/6 155/48/6
f 156/55/6 148/40/6 149/25/6
f 149/25/6 152/54/6 156/55/6
f 16/57/6 17/42/6 148/40/6
f 148/40/6 156/55/6 16/57/6
f 15/58/6 16/57/6 156/55/6
f 156/55/6 157/56/6 15/58/6
f 157/56/6 156/55/6 152/54/6
f 152/54/6 154/49/6 157/56/6
f 158/59/6 157/56/6 154/49/6
f 154/49/6 159/50/6 158/59/6
f 14/61/6 15/58/6 157/56/6
f 157/56/6 158/59/6 14/61/6
f 13/62/6 14/61/6 158/59/6
f 158/59/6 59/60/6 13/62/6
f 59/60/6 158/59/6 159/50/6
f 159/50/6 58/51/6 59/60/6
f 160/45/6 155/48/6 122/47/6
f 122/47/6 126/44/6 160/45/6
f 159/50/6 154/49/6 155/48/6
f 155/48/6 160/45/6 159/50/6
f 58/51/6 159/50/6 160/45/6
f 160/45/6 57/46/6 58/51/6
f 57/46/6 160/45/6 126/44/6
f 126/44/6 56/43/6 57/46/6
f 161/99/4 86/8/4 87/7/4
f 87/7/4 162/100/4 161/99/4
f 163/101/4 100/9/4 86/8/4
f 86/8/4 161/99/4 163/101/4
f 164/99/1 102/8/1 100/7/1
f 100/7/1 163/100/1 164/99/1
f 165/101/1 112/9/1 102/8/1
f 102/8/1 164/99/1 165/101/1
f 166/99/2 65/8/2 112/7/2
f 112/7/2 165/100/2 166/99/2
f 167/101/2 68/9/2 65/8/2
f 65/8/2 166/99/2 167/101/2
f 168/99/3 72/8/3 68/7/3
f 68/7/3 167/100/3 168/99/3
f 162/101/3 87/9/3 72/8/3
f 72/8/3 168/99/3 162/101/3

